<?xml version="1.0" standalone="no"?>
<!DOCTYPE svg PUBLIC "-//W3C//DTD SVG 20010904//EN"
 "http://www.w3.org/TR/2001/REC-SVG-20010904/DTD/svg10.dtd">
<svg version="1.0" xmlns="http://www.w3.org/2000/svg"
 width="130.000000pt" height="61.000000pt" viewBox="0 0 130.000000 61.000000"
 preserveAspectRatio="xMidYMid meet">

<g transform="translate(0.000000,61.000000) scale(0.100000,-0.100000)"
fill="#000000" stroke="none">
<path d="M310 557 c0 -12 152 -429 180 -493 16 -37 20 -40 51 -38 19 1 44 3
56 3 20 1 21 3 11 26 -6 14 -9 27 -6 30 11 11 38 -8 44 -30 6 -26 40 -36 91
-28 26 4 33 10 33 28 0 29 43 50 60 29 19 -21 33 -17 70 21 30 31 32 37 21 58
-18 34 1 77 34 77 25 0 26 2 23 58 -3 51 -5 57 -26 60 -13 2 -28 14 -34 28 -9
19 -8 28 7 44 17 19 17 21 -24 61 -39 40 -42 41 -60 25 -25 -23 -71 -3 -71 31
0 22 -4 23 -60 23 -53 0 -60 -2 -60 -20 0 -12 -12 -26 -32 -36 -29 -15 -32
-15 -44 1 -12 16 -14 16 -38 -1 -15 -9 -35 -29 -46 -44 -17 -24 -18 -28 -3
-42 11 -11 12 -21 6 -33 -8 -13 -17 3 -45 77 l-36 93 -51 1 c-30 1 -51 -3 -51
-9z m452 -149 c36 -13 68 -66 68 -110 0 -48 -37 -99 -84 -117 -104 -40 -203
78 -151 179 16 30 40 48 84 60 27 7 35 6 83 -12z"/>
<path d="M870 557 c0 -24 74 -87 103 -87 l27 0 0 -220 0 -220 60 0 60 0 0 220
0 220 65 0 65 0 0 50 0 50 -190 0 c-149 0 -190 -3 -190 -13z"/>
<path d="M265 543 c-4 -10 -40 -106 -80 -213 -40 -107 -82 -219 -94 -247 l-21
-53 63 0 62 0 68 188 c37 103 67 194 67 202 0 22 -44 140 -51 140 -4 0 -10 -8
-14 -17z"/>
</g>
</svg>
