<svg xmlns="http://www.w3.org/2000/svg" version="1.1" xmlns:xlink="http://www.w3.org/1999/xlink" xmlns:svgjs="http://svgjs.dev/svgjs" width="1000" height="1012" viewBox="0 0 1000 1012"><g transform="matrix(1,0,0,1,0.8839627157399832,0.40971659919023296)"><svg viewBox="0 0 244 247" data-background-color="#b19dd0" preserveAspectRatio="xMidYMid meet" height="1012" width="1000" xmlns="http://www.w3.org/2000/svg" xmlns:xlink="http://www.w3.org/1999/xlink"><g id="tight-bounds" transform="matrix(1,0,0,1,-0.2156869026405559,-0.09999999999999432)"><svg viewBox="0 0 244.43135999999998 247.2" height="247.2" width="244.43135999999998"><g><svg></svg></g><g><svg viewBox="0 0 244.43135999999998 247.2" height="247.2" width="244.43135999999998"><g transform="matrix(1,0,0,1,0,50.344215903614455)"><svg viewBox="0 0 244.43135999999998 146.51156819277108" height="146.51156819277108" width="244.43135999999998"><g><svg viewBox="0 0 244.43135999999998 146.51156819277108" height="146.51156819277108" width="244.43135999999998"><g><svg viewBox="0 0 244.43135999999998 146.51156819277108" height="146.51156819277108" width="244.43135999999998"><g><svg viewBox="0 0 244.43135999999998 146.51156819277108" height="146.51156819277108" width="244.43135999999998"><g id="textblocktransform"><svg viewBox="0 0 244.43135999999998 146.51156819277108" height="146.51156819277108" width="244.43135999999998" id="textblock"><g><svg viewBox="0 0 244.43135999999998 146.51156819277108" height="146.51156819277108" width="244.43135999999998"><g transform="matrix(1,0,0,1,0,0)"><svg width="244.43135999999998" viewBox="1 -38.11000061035156 64.83999633789062 38.869998931884766" height="146.51156819277108" data-palette-color="#7a26c1"><path d="M20.56-24.44L20.56-26.59Q20.43-27.44 19.96-28.2 19.48-28.96 18.74-29.5 17.99-30.05 17.05-30.37 16.11-30.69 15.09-30.69L15.09-30.69Q14.16-30.69 13.35-30.49 12.55-30.3 11.95-29.9 11.35-29.49 11-28.86 10.64-28.22 10.64-27.34L10.64-27.34Q10.64-26.25 11.12-25.6 11.6-24.95 12.34-24.54 13.09-24.12 13.99-23.88 14.89-23.63 15.75-23.34L15.75-23.34 22.46-21.09Q23.85-20.61 25.07-19.75 26.29-18.9 27.19-17.68 28.08-16.46 28.59-14.87 29.1-13.28 29.1-11.3L29.1-11.3Q29.1-8.62 28.11-6.4 27.12-4.17 25.34-2.59 23.56-1 21.07-0.12 18.58 0.76 15.55 0.76L15.55 0.76Q13.43 0.76 11.54 0.28 9.64-0.2 8.08-1.1 6.52-2 5.35-3.26 4.17-4.52 3.52-6.1L3.52-6.1 1-6.1 1-13.45 9.84-13.45 9.84-11.94Q9.84-10.84 10.19-9.91 10.55-8.98 11.25-8.3 11.96-7.62 13.04-7.24 14.11-6.86 15.55-6.86L15.55-6.86Q17.75-6.86 18.9-7.87 20.04-8.89 20.04-10.69L20.04-10.69Q20.04-11.62 19.64-12.24 19.24-12.87 18.6-13.29 17.97-13.72 17.19-14.01 16.41-14.31 15.65-14.55L15.65-14.55 10.06-16.36Q8.47-16.85 6.99-17.72 5.52-18.6 4.38-19.92 3.25-21.24 2.58-23.01 1.9-24.78 1.9-27.05L1.9-27.05Q1.9-29.69 2.88-31.75 3.86-33.81 5.62-35.23 7.37-36.65 9.79-37.38 12.21-38.11 15.09-38.11L15.09-38.11Q17.36-38.11 19.29-37.59 21.22-37.06 22.74-36.18 24.27-35.3 25.33-34.17 26.39-33.03 26.95-31.81L26.95-31.81 29.39-31.81 29.39-24.44 20.56-24.44ZM64.94-25.76L57.39-25.76Q56.03-27.71 54.93-28.53 53.83-29.35 52.56-29.7 51.29-30.05 49.9-30.05L49.9-30.05Q47.85-30.05 46.09-29.14 44.33-28.22 43.05-26.65 41.77-25.07 41.04-22.99 40.31-20.9 40.31-18.55L40.31-18.55Q40.31-16.19 41.03-14.1 41.75-12.01 43.02-10.45 44.28-8.89 46.04-7.97 47.8-7.06 49.9-7.06L49.9-7.06Q51.36-7.06 52.63-7.53 53.9-8.01 54.94-8.79 55.98-9.57 56.76-10.58 57.54-11.6 57.98-12.7L57.98-12.7 65.84-10.5Q65.09-8.11 63.62-6.07 62.16-4.03 60.09-2.54 58.03-1.05 55.45-0.2 52.88 0.66 49.9 0.66L49.9 0.66Q47.39 0.66 45.09-0.02 42.8-0.71 40.81-1.95 38.82-3.2 37.19-4.96 35.57-6.71 34.42-8.85 33.27-10.99 32.64-13.44 32-15.89 32-18.55L32-18.55Q32-22.53 33.4-26.01 34.79-29.49 37.2-32.09 39.62-34.69 42.88-36.19 46.14-37.7 49.9-37.7L49.9-37.7Q52.9-37.7 54.95-36.95 57-36.21 59.47-34.01L59.47-34.01 64.94-34.01 64.94-25.76Z" opacity="1" transform="matrix(1,0,0,1,0,0)" fill="#7a26c1" class="wordmark-text-0" data-fill-palette-color="primary" id="text-0"></path></svg></g></svg></g></svg></g></svg></g><g></g></svg></g></svg></g></svg></g><path d="M0 44.344L0 1 244.431 1 244.431 44.344 231.219 44.344 231.219 14.213 13.213 14.213 13.213 44.344 0 44.344M0 202.856L0 246.2 244.431 246.2 244.431 202.856 231.219 202.856 231.219 232.987 13.213 232.987 13.213 202.856 0 202.856" fill="#7a26c1" stroke="transparent" data-fill-palette-color="primary"></path></svg></g><defs></defs></svg><rect width="244.43135999999998" height="247.2" fill="none" stroke="none" visibility="hidden"></rect></g></svg></g></svg>